#N canvas 1450 669 2390 1145 12;
#X obj 378 172 phasor~;
#X obj 378 195 *~;
#X obj 378 217 +~;
#X obj 360 606 expr~ sin($v1*3.1415);
#X obj 167 730 *~;
#X text 518 607 sine window;
#X obj 433 922 +~;
#X obj 415 247 samphold~;
#X obj 418 223 sig~;
#X obj 397 327 samphold~;
#X obj 400 303 sig~;
#X obj 657 175 phasor~;
#X obj 657 198 *~;
#X obj 657 220 +~;
#X obj 835 606 expr~ sin($v1*3.1415);
#X obj 648 735 *~;
#X obj 693 250 samphold~;
#X obj 694 227 sig~;
#X obj 675 330 samphold~;
#X obj 676 307 sig~;
#X obj 377 947 env~;
#X floatatom 377 970 5 0 0 0 - - -;
#X obj 937 176 phasor~;
#X obj 937 199 *~;
#X obj 937 221 +~;
#X obj 1436 598 expr~ sin($v1*3.1415);
#X obj 1233 744 *~;
#X obj 975 249 samphold~;
#X obj 976 226 sig~;
#X obj 957 329 samphold~;
#X obj 958 306 sig~;
#X obj 1236 774 env~;
#X floatatom 1236 797 5 0 0 0 - - -;
#X msg 980 123 0.66;
#X msg 700 122 0.33;
#X msg 424 115 0;
#X obj 169 667 +~;
#X obj 651 683 +~;
#X obj 1234 696 +~;
#X obj 252 613 osc~ 0.03;
#X obj 709 625 osc~ 0.05;
#X obj 1258 638 osc~ 0.09;
#X obj 252 635 *~ 200;
#X obj 709 648 *~ 200;
#X obj 1259 661 *~ 200;
#X floatatom 513 95 5 0 0 0 - - -;
#X obj 513 73 inlet;
#X obj 705 72 inlet;
#X obj 823 69 inlet;
#X obj 1005 69 inlet;
#X obj 434 948 outlet~;
#X obj 167 708 tabread4~ l;
#X obj 648 713 tabread4~ l;
#X obj 1233 722 tabread4~ l;
#X obj 823 951 outlet~;
#X obj 823 918 +~;
#X obj 286 733 *~;
#X obj 286 711 tabread4~ r;
#X obj 748 947 env~;
#X floatatom 748 970 5 0 0 0 - - -;
#X obj 755 738 *~;
#X obj 755 716 tabread4~ r;
#X obj 1330 745 *~;
#X obj 1330 723 tabread4~ r;
#X obj 1337 76 inlet;
#X obj 424 143 +;
#X obj 702 149 +;
#X obj 979 150 +;
#X text 821 45 grain_length;
#X floatatom 799 179 5 0 0 0 - - -;
#X obj 469 196 samphold~;
#X obj 472 172 sig~;
#X connect 0 0 1 0;
#X connect 0 0 3 0;
#X connect 0 0 7 1;
#X connect 0 0 9 1;
#X connect 1 0 2 0;
#X connect 2 0 36 0;
#X connect 3 0 4 1;
#X connect 3 0 56 1;
#X connect 4 0 6 0;
#X connect 6 0 50 0;
#X connect 6 0 20 0;
#X connect 7 0 1 1;
#X connect 8 0 7 0;
#X connect 9 0 2 1;
#X connect 10 0 9 0;
#X connect 11 0 12 0;
#X connect 11 0 14 0;
#X connect 11 0 16 1;
#X connect 11 0 18 1;
#X connect 12 0 13 0;
#X connect 13 0 37 0;
#X connect 14 0 15 1;
#X connect 14 0 60 1;
#X connect 15 0 6 0;
#X connect 16 0 12 1;
#X connect 17 0 16 0;
#X connect 18 0 13 1;
#X connect 19 0 18 0;
#X connect 20 0 21 0;
#X connect 22 0 23 0;
#X connect 22 0 25 0;
#X connect 22 0 27 1;
#X connect 22 0 29 1;
#X connect 23 0 24 0;
#X connect 24 0 38 0;
#X connect 25 0 26 1;
#X connect 25 0 62 1;
#X connect 26 0 31 0;
#X connect 26 0 6 0;
#X connect 27 0 23 1;
#X connect 28 0 27 0;
#X connect 29 0 24 1;
#X connect 30 0 29 0;
#X connect 31 0 32 0;
#X connect 33 0 67 0;
#X connect 34 0 66 0;
#X connect 35 0 65 0;
#X connect 36 0 51 0;
#X connect 36 0 57 0;
#X connect 37 0 52 0;
#X connect 37 0 61 0;
#X connect 38 0 53 0;
#X connect 38 0 63 0;
#X connect 39 0 42 0;
#X connect 40 0 43 0;
#X connect 41 0 44 0;
#X connect 42 0 36 1;
#X connect 43 0 37 1;
#X connect 44 0 38 1;
#X connect 45 0 22 0;
#X connect 45 0 11 0;
#X connect 45 0 0 0;
#X connect 46 0 45 0;
#X connect 47 0 35 0;
#X connect 47 0 34 0;
#X connect 47 0 33 0;
#X connect 48 0 28 0;
#X connect 48 0 17 0;
#X connect 48 0 8 0;
#X connect 48 0 69 0;
#X connect 49 0 30 0;
#X connect 49 0 19 0;
#X connect 49 0 10 0;
#X connect 51 0 4 0;
#X connect 52 0 15 0;
#X connect 53 0 26 0;
#X connect 55 0 54 0;
#X connect 55 0 58 0;
#X connect 56 0 55 0;
#X connect 57 0 56 0;
#X connect 58 0 59 0;
#X connect 60 0 55 0;
#X connect 61 0 60 0;
#X connect 62 0 55 0;
#X connect 63 0 62 0;
#X connect 64 0 67 1;
#X connect 64 0 66 1;
#X connect 64 0 65 1;
#X connect 65 0 0 1;
#X connect 66 0 11 1;
#X connect 67 0 22 1;
#X connect 71 0 70 0;
