#N canvas 0 25 3840 2107 12;
#X text 34 -18 load soundfile in array;
#X text 10 -17 1;
#X text 15 523 2;
#X text 40 524 Set Parameters;
#X obj 40 565 vsl 15 512 0 127 0 0 empty empty start_position -2 -8
0 10 -262144 -1 -1 1997 1;
#X obj 231 555 vsl 15 512 0 -127 0 0 empty empty grain_spread -2 -8
0 10 -262144 -1 -1 14000 1;
#X obj 422 565 vsl 15 512 0 127 0 0 empty empty spatial_spread -2 -8
0 10 -262144 -1 -1 51000 1;
#X obj 613 565 vsl 15 512 0 127 0 0 empty empty grain_length -2 -8
0 10 -262144 -1 -1 33300 1;
#X obj 640 637 int;
#X floatatom 640 666 5 0 0 3 grain_length_samples - grain_length_samples
;
#X obj 640 569 / 127;
#X obj 58 569 / 127;
#X obj 58 592 *;
#X obj 87 592 r len_array;
#X obj 1763 215 s len_array;
#X floatatom 1763 193 10 0 0 0 - - -;
#X obj 58 615 int;
#X floatatom 58 638 10 0 0 3 start_position_samples - start_position_samples
;
#X msg 1863 192 41000;
#X obj 1863 215 s sr;
#X obj 640 862 /;
#X obj 662 822 r sr;
#X floatatom 640 885 5 0 0 3 grain_length_sec - grain_length_sec;
#X obj 640 591 0;
#X obj 58 868 /;
#X obj 74 828 r sr;
#X floatatom 58 891 5 0 0 3 start_position_sec - start_position_sec
;
#X obj 1915 215 s max_grain_spread_ms;
#X obj 251 569 r max_grain_spread_ms;
#X obj 253 695 / 127;
#X obj 253 718 *;
#X obj 253 741 int;
#X floatatom 253 764 5 0 0 3 grain_spread_samples - grain_spread_samples
;
#X obj 251 592 expr $f1*$f2/1000;
#X obj 317 543 r sr;
#X floatatom 251 615 5 0 0 3 max_grain_spread_samples - max_grain_spread_samples
;
#X obj 253 871 /;
#X obj 271 829 r sr;
#X floatatom 253 894 5 0 0 3 grain_spread_sec - grain_spread_sec;
#X obj 449 569 / 127;
#X floatatom 449 617 5 0 0 3 grain_spatial_spread - grain_spatial_spread
;
#X obj 449 592 * 1;
#X obj 1763 126 soundfiler;
#X obj 641 797 r grain_length_samples;
#X obj 259 663 r max_grain_spread_samples;
#X obj 253 850 r grain_spread_samples;
#X obj 58 805 r start_position_samples;
#X floatatom 1622 793 5 0 0 1 frequency - -;
#X obj 1930 557 r grain_length_samples;
#X obj 1789 1746 dac~;
#X obj 1730 1689 *~;
#X obj 2143 1496 vsl 15 128 0 1 0 0 empty empty empty 0 -9 0 10 -262144
-1 -1 11600 1;
#X obj 1730 1712 *~ 0.9;
#X obj 1634 556 r sr;
#X obj 1673 556 r grain_length_samples;
#X obj 1618 711 /;
#X floatatom 1640 661 5 0 0 0 - - -;
#X obj 1618 688 +;
#X obj 1680 635 t b f;
#X msg 1593 653 0;
#X obj 2101 555 r start_position_samples;
#X obj 1842 557 r len_array;
#X obj 821 566 vsl 15 512 0 127 0 0 empty empty speed_multiple -2 -8
0 10 -262144 -1 -1 14603 1;
#X obj 821 509 r len_array;
#X floatatom 872 756 5 0 0 1 multiplier - multiplier;
#X floatatom 1619 738 5 0 0 0 - - -;
#X obj 1619 760 *;
#X obj 867 656 t b f;
#X floatatom 896 685 5 0 0 0 - - -;
#X msg 864 685 1;
#X obj 864 708 /;
#X obj 1664 736 r multiplier;
#X obj 1664 759 t b f;
#X obj 859 599 * 7;
#X obj 859 576 / 127;
#X msg 822 530 18.15;
#X floatatom 353 1503 10 0 0 0 - - -;
#X obj 460 1438 r sr;
#X floatatom 460 1461 5 0 0 0 - - -;
#X obj 393 1539 /, f 10;
#X floatatom 393 1562 5 0 0 0 - - -;
#X obj 353 1480 r len_array;
#X obj 391 1824 spigot;
#X obj 473 1720 metro 50;
#X obj 393 1767 snapshot~;
#X obj 615 1575 tgl 15 0 empty empty empty 17 7 0 10 -262144 -1 -1
0 1;
#X floatatom 391 1847 5 0 0 0 - - -;
#X obj 393 1745 phasor~;
#X floatatom 391 1899 5 0 0 0 - - -;
#X obj 391 1921 s pos_force;
#X obj 556 1763 +;
#X msg 557 1738 0;
#X floatatom 557 1806 5 0 0 0 - - -;
#X obj 615 1595 t f f f;
#X obj 571 1704 sel 1;
#X obj 173 1256 vsl 15 512 0 2047 0 0 empty empty speed_multiple -2
-8 0 10 -262144 -1 -1 453 1;
#X obj 173 1192 r len_array;
#X obj 219 1346 t b f;
#X floatatom 248 1375 5 0 0 0 - - -;
#X msg 216 1375 1;
#X obj 216 1398 /;
#X obj 211 1289 * 7;
#X msg 174 1220 18.15;
#X obj 216 1421 expr round($f1*100)/100;
#X floatatom 216 1444 5 0 0 0 - - -;
#X obj 391 1622 *;
#X floatatom 391 1645 5 0 0 0 - - -;
#X obj 226 1474 t b f;
#X obj 95 5 hsl 1600 60 0 127 0 0 empty empty empty -2 -8 0 10 -204786
-262144 -1 5945 1;
#X floatatom 1737 847 10 0 0 0 - - -;
#X floatatom 1842 880 5 0 0 0 - - -;
#X floatatom 1957 904 10 0 0 0 - - -;
#X obj 1625 928 grain, f 48;
#X obj 1573 1589 env~;
#X floatatom 1573 1612 5 0 0 0 - - -;
#X obj 1614 1569 *~ 1;
#X obj 1616 1535 +~;
#X floatatom 2246 822 10 0 0 0 - - -;
#X floatatom 2323 845 5 0 0 0 - - -;
#X floatatom 2365 868 10 0 0 0 - - -;
#X obj 2566 898 +;
#X obj 2288 555 r grain_spread_samples;
#X floatatom 2567 930 10 0 0 0 - - -;
#X obj 2611 868 t b f;
#X obj 95 65 hsl 1600 60 0 127 0 0 empty empty empty -2 -8 0 10 -204786
-1 -1 5346 1;
#X obj 95 125 hsl 1600 60 0 127 0 0 empty empty empty -2 -8 0 10 -204786
-1 -1 4747 1;
#X obj 13 97 r pos_2nd;
#X obj 7 155 r pos_3rd;
#X floatatom 2988 832 10 0 0 0 - - -;
#X floatatom 3065 855 5 0 0 0 - - -;
#X floatatom 3109 880 10 0 0 0 - - -;
#X obj 3287 824 +;
#X floatatom 3288 856 10 0 0 0 - - -;
#X obj 3331 821 t b f;
#X obj 3332 794 / 2;
#N canvas 0 22 450 278 (subpatch) 0;
#X array l 749568 float 2;
#X coords 0 1 749568 -1 1600 180 1 0 0;
#X restore 92 5 graph;
#X obj 75 686 s pos_1st;
#X obj 22 1102 r pos_force;
#X obj 5 40 r pos_1st;
#X obj 2593 979 /;
#X floatatom 2594 1001 5 0 0 0 - - -;
#X obj 2651 951 t b f;
#X obj 3326 908 /;
#X floatatom 3327 930 5 0 0 0 - - -;
#X obj 3384 880 t b f;
#X obj 2224 1608 s pos_3rd;
#X obj 2355 1618 s pos_2nd;
#X obj 460 1483 t b f;
#X obj 211 1266 / 127;
#X text 139 383 load soundfile in array;
#X text 124 384 1;
#X obj 95 192 hsl 1600 60 0 127 0 0 empty empty empty -2 -8 0 10 -204786
-262144 -1 5945 1;
#X obj 95 252 hsl 1600 60 0 127 0 0 empty empty empty -2 -8 0 10 -204786
-1 -1 5346 1;
#X obj 95 312 hsl 1600 60 0 127 0 0 empty empty empty -2 -8 0 10 -204786
-1 -1 4747 1;
#X obj 13 284 r pos_2nd;
#X obj 7 342 r pos_3rd;
#N canvas 0 22 450 278 (subpatch) 0;
#X array r 749568 float 2;
#X coords 0 1 749568 -1 1600 180 1 0 0;
#X restore 92 192 graph;
#X obj 5 227 r pos_1st;
#X msg 1763 43 read -resize samples/sample1.wav l r;
#X msg 1764 63 read -resize samples/sample2.wav l r;
#X msg 1763 83 read -resize samples/sample3.wav l r;
#X msg 1763 103 read -resize samples/sample4.wav l r;
#X msg 2045 43 read -resize samples/sample5.wav l r;
#X msg 2045 63 read -resize samples/sample6.wav l r;
#X msg 2045 83 read -resize samples/sample7.wav l r;
#X msg 2375 58 read -resize samples/HongKongTrail.mp3 l r;
#X msg 2376 76 read -resize samples/WaterStream.mp3 l r;
#X obj 1801 1549 +~;
#X obj 1843 1607 env~;
#X floatatom 1843 1630 5 0 0 0 - - -;
#X obj 1798 1584 *~ 1;
#X obj 1827 1690 *~;
#X obj 1827 1713 *~ 0.9;
#X obj 2171 912 grain, f 48;
#X obj 2874 910 grain, f 48;
#X obj 391 1876 * 127;
#X obj 3327 952 * 127;
#X obj 2594 1023 * 127;
#N canvas 0 25 2245 905 stereo 0;
#X obj 538 53 inlet~;
#X obj 534 560 outlet~;
#X obj 711 52 inlet~;
#X obj 707 559 outlet~;
#X obj 989 54 inlet;
#X obj 534 500 *~;
#X obj 707 509 *~;
#X text 1085 55 -1 to +1;
#X msg 901 295 1;
#X obj 920 322 +;
#X floatatom 917 395 5 0 0 0 - - -;
#X floatatom 989 214 5 0 0 0 - - -;
#X obj 992 94 hsl 128 15 -1 1 0 0 empty empty empty -2 -8 0 10 -262144
-1 -1 6350 1;
#X floatatom 936 75 5 0 0 0 - - -;
#X obj 989 236 t b f;
#X obj 1029 311 +;
#X floatatom 1032 384 5 0 0 0 - - -;
#X obj 989 137 clip -1 1;
#X obj 920 345 / 2;
#X msg 1015 288 -1;
#X obj 1029 333 * -0.5;
#X connect 0 0 5 0;
#X connect 2 0 6 0;
#X connect 4 0 12 0;
#X connect 5 0 1 0;
#X connect 6 0 3 0;
#X connect 8 0 9 0;
#X connect 9 0 18 0;
#X connect 10 0 5 1;
#X connect 11 0 14 0;
#X connect 12 0 17 0;
#X connect 13 0 12 0;
#X connect 14 0 8 0;
#X connect 14 0 19 0;
#X connect 14 1 9 1;
#X connect 14 1 15 1;
#X connect 15 0 20 0;
#X connect 16 0 6 1;
#X connect 17 0 11 0;
#X connect 18 0 10 0;
#X connect 19 0 15 0;
#X connect 20 0 16 0;
#X restore 1638 1196 pd stereo;
#X obj 1720 1198 hsl 128 15 -1 1 0 0 empty empty empty -2 -8 0 10 -262144
-1 -1 6350 1;
#N canvas 0 25 2245 905 stereo 0;
#X obj 538 53 inlet~;
#X obj 534 560 outlet~;
#X obj 711 52 inlet~;
#X obj 707 559 outlet~;
#X obj 989 54 inlet;
#X obj 534 500 *~;
#X obj 707 509 *~;
#X text 1085 55 -1 to +1;
#X msg 901 295 1;
#X obj 920 322 +;
#X floatatom 917 395 5 0 0 0 - - -;
#X floatatom 989 214 5 0 0 0 - - -;
#X obj 992 94 hsl 128 15 -1 1 0 0 empty empty empty -2 -8 0 10 -262144
-1 -1 12688 1;
#X floatatom 936 75 5 0 0 0 - - -;
#X obj 989 236 t b f;
#X obj 1029 311 +;
#X floatatom 1032 384 5 0 0 0 - - -;
#X obj 989 137 clip -1 1;
#X obj 920 345 / 2;
#X msg 1015 288 -1;
#X obj 1029 333 * -0.5;
#X connect 0 0 5 0;
#X connect 2 0 6 0;
#X connect 4 0 12 0;
#X connect 5 0 1 0;
#X connect 6 0 3 0;
#X connect 8 0 9 0;
#X connect 9 0 18 0;
#X connect 10 0 5 1;
#X connect 11 0 14 0;
#X connect 12 0 17 0;
#X connect 13 0 12 0;
#X connect 14 0 8 0;
#X connect 14 0 19 0;
#X connect 14 1 9 1;
#X connect 14 1 15 1;
#X connect 15 0 20 0;
#X connect 16 0 6 1;
#X connect 17 0 11 0;
#X connect 18 0 10 0;
#X connect 19 0 15 0;
#X connect 20 0 16 0;
#X restore 2195 1160 pd stereo;
#X obj 2277 1163 hsl 128 15 -1 1 0 0 empty empty empty -2 -8 0 10 -262144
-1 -1 12688 1;
#N canvas 0 25 2245 905 stereo 0;
#X obj 538 53 inlet~;
#X obj 534 560 outlet~;
#X obj 711 52 inlet~;
#X obj 707 559 outlet~;
#X obj 989 54 inlet;
#X obj 534 500 *~;
#X obj 707 509 *~;
#X text 1085 55 -1 to +1;
#X msg 901 295 1;
#X obj 920 322 +;
#X floatatom 917 395 5 0 0 0 - - -;
#X floatatom 989 214 5 0 0 0 - - -;
#X obj 992 94 hsl 128 15 -1 1 0 0 empty empty empty -2 -8 0 10 -262144
-1 -1 12 1;
#X floatatom 936 75 5 0 0 0 - - -;
#X obj 989 236 t b f;
#X obj 1029 311 +;
#X floatatom 1032 384 5 0 0 0 - - -;
#X obj 989 137 clip -1 1;
#X obj 920 345 / 2;
#X msg 1015 288 -1;
#X obj 1029 333 * -0.5;
#X connect 0 0 5 0;
#X connect 2 0 6 0;
#X connect 4 0 12 0;
#X connect 5 0 1 0;
#X connect 6 0 3 0;
#X connect 8 0 9 0;
#X connect 9 0 18 0;
#X connect 10 0 5 1;
#X connect 11 0 14 0;
#X connect 12 0 17 0;
#X connect 13 0 12 0;
#X connect 14 0 8 0;
#X connect 14 0 19 0;
#X connect 14 1 9 1;
#X connect 14 1 15 1;
#X connect 15 0 20 0;
#X connect 16 0 6 1;
#X connect 17 0 11 0;
#X connect 18 0 10 0;
#X connect 19 0 15 0;
#X connect 20 0 16 0;
#X restore 2902 1170 pd stereo;
#X obj 2984 1172 hsl 128 15 -1 1 0 0 empty empty empty -2 -8 0 10 -262144
-1 -1 12 1;
#X obj 2459 552 r grain_spatial_spread;
#X floatatom 1787 1122 5 0 0 0 - - -;
#X floatatom 2312 1097 5 0 0 0 - - -;
#X obj 2312 1119 * 1;
#X floatatom 3030 1103 5 0 0 0 - - -;
#X obj 3030 1125 * -1;
#X msg 1788 1143 0;
#X msg 2375 40 read -resize samples/canadian_forest.wav l r;
#X msg 2376 95 read -resize samples/la_reunion.wav l r;
#X msg 1858 163 192000;
#X msg 1967 649 0;
#X msg 2496 633 1;
#X obj 2496 656 / 9;
#X floatatom 2496 679 5 0 0 0 - - -;
#X obj 3212 643 / 9;
#X floatatom 3212 666 5 0 0 0 - - -;
#X msg 3212 620 2;
#X msg 1915 192 500;
#X obj 864 731 expr round($f1*1000)/1000;
#X obj 2706 87 oscparse;
#X obj 2706 109 list trim;
#X msg 2705 40 listen 8000;
#X obj 2706 65 netreceive -u -b 8000;
#X obj 2706 138 list trim;
#X obj 2550 271 route x y;
#X msg 2550 294 \$1 50;
#X obj 2550 317 line;
#X obj 2549 448 spigot;
#X obj 2573 429 tgl 15 0 empty empty empty 17 7 0 10 -262144 -1 -1
0 1;
#X floatatom 2549 471 5 0 0 0 - - -;
#X obj 2550 385 int;
#X floatatom 2550 408 5 0 127 0 - - -;
#X obj 2550 362 * 128;
#X obj 2552 341 hsl 20 15 0 1 0 0 empty empty empty -2 -8 0 10 -262144
-1 -1 0 1;
#X msg 2599 294 \$1 50;
#X obj 2599 317 line;
#X obj 2598 448 spigot;
#X obj 2622 429 tgl 15 0 empty empty empty 17 7 0 10 -262144 -1 -1
0 1;
#X floatatom 2598 471 5 0 0 0 - - -;
#X obj 2599 385 int;
#X floatatom 2599 408 5 0 127 0 - - -;
#X obj 2599 362 * 128;
#X obj 2601 341 hsl 20 15 0 1 0 0 empty empty empty -2 -8 0 10 -262144
-1 -1 0 1;
#X obj 2653 270 route x y;
#X msg 2653 293 \$1 50;
#X obj 2653 316 line;
#X obj 2652 447 spigot;
#X obj 2676 428 tgl 15 0 empty empty empty 17 7 0 10 -262144 -1 -1
0 1;
#X floatatom 2652 470 5 0 0 0 - - -;
#X obj 2653 384 int;
#X floatatom 2653 407 5 0 127 0 - - -;
#X obj 2653 361 * 128;
#X obj 2655 340 hsl 20 15 0 1 0 0 empty empty empty -2 -8 0 10 -262144
-1 -1 0 1;
#X msg 2703 292 \$1 50;
#X obj 2703 315 line;
#X obj 2702 446 spigot;
#X obj 2726 427 tgl 15 0 empty empty empty 17 7 0 10 -262144 -1 -1
0 1;
#X floatatom 2702 469 5 0 0 0 - - -;
#X obj 2703 383 int;
#X floatatom 2703 406 5 0 127 0 - - -;
#X obj 2703 360 * 128;
#X obj 2705 339 hsl 20 15 0 1 0 0 empty empty empty -2 -8 0 10 -262144
-1 -1 0 1;
#X obj 2755 269 route x y;
#X msg 2755 292 \$1 50;
#X obj 2755 315 line;
#X obj 2754 446 spigot;
#X obj 2778 427 tgl 15 0 empty empty empty 17 7 0 10 -262144 -1 -1
0 1;
#X floatatom 2754 469 5 0 0 0 - - -;
#X obj 2755 383 int;
#X floatatom 2755 406 5 0 127 0 - - -;
#X obj 2755 360 * 128;
#X obj 2757 339 hsl 20 15 0 1 0 0 empty empty empty -2 -8 0 10 -262144
-1 -1 0 1;
#X msg 2806 292 \$1 50;
#X obj 2806 315 line;
#X obj 2805 446 spigot;
#X obj 2829 427 tgl 15 0 empty empty empty 17 7 0 10 -262144 -1 -1
0 1;
#X floatatom 2805 469 5 0 0 0 - - -;
#X obj 2806 383 int;
#X floatatom 2806 406 5 0 127 0 - - -;
#X obj 2806 360 * 128;
#X obj 2808 339 hsl 20 15 0 1 0 0 empty empty empty -2 -8 0 10 -262144
-1 -1 0 1;
#X text 2911 53 3;
#X text 2926 52 enable OSC;
#X msg 2045 102 read -resize samples/lung_sounds.wav r;
#X text 566 533 evl kubisch skalieren für spannung?;
#X obj 2704 159 route h0 h1 both;
#X obj 2552 245 route f0 f1 f2 dist_ti dist_ip dist_pt, f 66;
#X obj 3541 239 route tt ii pp;
#X msg 2872 300 \$1 50;
#X obj 2872 323 line;
#X obj 2871 454 spigot;
#X obj 2895 435 tgl 15 0 empty empty empty 17 7 0 10 -262144 -1 -1
0 1;
#X floatatom 2871 477 5 0 0 0 - - -;
#X obj 2872 391 int;
#X floatatom 2872 414 5 0 127 0 - - -;
#X obj 2872 368 * 128;
#X obj 2874 347 hsl 20 15 0 1 0 0 empty empty empty -2 -8 0 10 -262144
-1 -1 0 1;
#X msg 2921 300 \$1 50;
#X obj 2921 323 line;
#X obj 2920 454 spigot;
#X obj 2944 435 tgl 15 0 empty empty empty 17 7 0 10 -262144 -1 -1
0 1;
#X floatatom 2920 477 5 0 0 0 - - -;
#X obj 2921 391 int;
#X floatatom 2921 414 5 0 127 0 - - -;
#X obj 2921 368 * 128;
#X obj 2923 347 hsl 20 15 0 1 0 0 empty empty empty -2 -8 0 10 -262144
-1 -1 0 1;
#X msg 2975 299 \$1 50;
#X obj 2975 322 line;
#X obj 2974 453 spigot;
#X obj 2998 434 tgl 15 0 empty empty empty 17 7 0 10 -262144 -1 -1
0 1;
#X floatatom 2974 476 5 0 0 0 - - -;
#X obj 2975 390 int;
#X floatatom 2975 413 5 0 127 0 - - -;
#X obj 2975 367 * 128;
#X obj 2977 346 hsl 20 15 0 1 0 0 empty empty empty -2 -8 0 10 -262144
-1 -1 0 1;
#X obj 3026 272 route x y;
#X msg 3026 295 \$1 50;
#X obj 3026 318 line;
#X obj 3025 449 spigot;
#X obj 3049 430 tgl 15 0 empty empty empty 17 7 0 10 -262144 -1 -1
0 1;
#X floatatom 3025 472 5 0 0 0 - - -;
#X obj 3026 386 int;
#X floatatom 3026 409 5 0 127 0 - - -;
#X obj 3026 363 * 128;
#X obj 3028 342 hsl 20 15 0 1 0 0 empty empty empty -2 -8 0 10 -262144
-1 -1 0 1;
#X msg 3075 295 \$1 50;
#X obj 3075 318 line;
#X obj 3074 449 spigot;
#X obj 3098 430 tgl 15 0 empty empty empty 17 7 0 10 -262144 -1 -1
0 1;
#X floatatom 3074 472 5 0 0 0 - - -;
#X obj 3075 386 int;
#X floatatom 3075 409 5 0 127 0 - - -;
#X obj 3075 363 * 128;
#X obj 3077 342 hsl 20 15 0 1 0 0 empty empty empty -2 -8 0 10 -262144
-1 -1 0 1;
#X obj 3129 271 route x y;
#X msg 3129 294 \$1 50;
#X obj 3129 317 line;
#X obj 3128 448 spigot;
#X obj 3152 429 tgl 15 0 empty empty empty 17 7 0 10 -262144 -1 -1
0 1;
#X floatatom 3128 471 5 0 0 0 - - -;
#X obj 3129 385 int;
#X floatatom 3129 408 5 0 127 0 - - -;
#X obj 3129 362 * 128;
#X obj 3131 341 hsl 20 15 0 1 0 0 empty empty empty -2 -8 0 10 -262144
-1 -1 0 1;
#X msg 3179 293 \$1 50;
#X obj 3179 316 line;
#X obj 3178 447 spigot;
#X obj 3202 428 tgl 15 0 empty empty empty 17 7 0 10 -262144 -1 -1
0 1;
#X floatatom 3178 470 5 0 0 0 - - -;
#X obj 3179 384 int;
#X floatatom 3179 407 5 0 127 0 - - -;
#X obj 3179 361 * 128;
#X obj 3181 340 hsl 20 15 0 1 0 0 empty empty empty -2 -8 0 10 -262144
-1 -1 0 1;
#X obj 3231 270 route x y;
#X msg 3231 293 \$1 50;
#X obj 3231 316 line;
#X obj 3230 447 spigot;
#X obj 3254 428 tgl 15 0 empty empty empty 17 7 0 10 -262144 -1 -1
0 1;
#X floatatom 3230 470 5 0 0 0 - - -;
#X obj 3231 384 int;
#X floatatom 3231 407 5 0 127 0 - - -;
#X obj 3231 361 * 128;
#X obj 3233 340 hsl 20 15 0 1 0 0 empty empty empty -2 -8 0 10 -262144
-1 -1 0 1;
#X msg 3282 293 \$1 50;
#X obj 3282 316 line;
#X obj 3281 447 spigot;
#X obj 3305 428 tgl 15 0 empty empty empty 17 7 0 10 -262144 -1 -1
0 1;
#X floatatom 3281 470 5 0 0 0 - - -;
#X obj 3282 384 int;
#X floatatom 3282 407 5 0 127 0 - - -;
#X obj 3282 361 * 128;
#X obj 3284 340 hsl 20 15 0 1 0 0 empty empty empty -2 -8 0 10 -262144
-1 -1 0 1;
#X obj 3028 246 route f0 f1 f2 dist_ti dist_ip dist_pt, f 70;
#X msg 3348 301 \$1 50;
#X obj 3348 324 line;
#X obj 3347 455 spigot;
#X obj 3371 436 tgl 15 0 empty empty empty 17 7 0 10 -262144 -1 -1
0 1;
#X floatatom 3347 478 5 0 0 0 - - -;
#X obj 3348 392 int;
#X floatatom 3348 415 5 0 127 0 - - -;
#X obj 3348 369 * 128;
#X obj 3350 348 hsl 20 15 0 1 0 0 empty empty empty -2 -8 0 10 -262144
-1 -1 0 1;
#X msg 3397 301 \$1 50;
#X obj 3397 324 line;
#X obj 3396 455 spigot;
#X obj 3420 436 tgl 15 0 empty empty empty 17 7 0 10 -262144 -1 -1
0 1;
#X floatatom 3396 478 5 0 0 0 - - -;
#X obj 3397 392 int;
#X floatatom 3397 415 5 0 127 0 - - -;
#X obj 3397 369 * 128;
#X obj 3399 348 hsl 20 15 0 1 0 0 empty empty empty -2 -8 0 10 -262144
-1 -1 0 1;
#X msg 3451 300 \$1 50;
#X obj 3451 323 line;
#X obj 3450 454 spigot;
#X obj 3474 435 tgl 15 0 empty empty empty 17 7 0 10 -262144 -1 -1
0 1;
#X floatatom 3450 477 5 0 0 0 - - -;
#X obj 3451 391 int;
#X floatatom 3451 414 5 0 127 0 - - -;
#X obj 3451 368 * 128;
#X obj 3453 347 hsl 20 15 0 1 0 0 empty empty empty -2 -8 0 10 -262144
-1 -1 0 1;
#X obj 3734 117 metro;
#X msg 3536 306 \$1 50;
#X obj 3536 329 line;
#X obj 3535 460 spigot;
#X obj 3559 441 tgl 15 0 empty empty empty 17 7 0 10 -262144 -1 -1
0 1;
#X floatatom 3535 483 5 0 0 0 - - -;
#X obj 3536 397 int;
#X floatatom 3536 420 5 0 127 0 - - -;
#X obj 3536 374 * 128;
#X obj 3538 353 hsl 20 15 0 1 0 0 empty empty empty -2 -8 0 10 -262144
-1 -1 0 1;
#X msg 3585 306 \$1 50;
#X obj 3585 329 line;
#X obj 3584 460 spigot;
#X obj 3608 441 tgl 15 0 empty empty empty 17 7 0 10 -262144 -1 -1
0 1;
#X floatatom 3584 483 5 0 0 0 - - -;
#X obj 3585 397 int;
#X floatatom 3585 420 5 0 127 0 - - -;
#X obj 3585 374 * 128;
#X obj 3587 353 hsl 20 15 0 1 0 0 empty empty empty -2 -8 0 10 -262144
-1 -1 0 1;
#X msg 3639 305 \$1 50;
#X obj 3639 328 line;
#X obj 3638 459 spigot;
#X obj 3662 440 tgl 15 0 empty empty empty 17 7 0 10 -262144 -1 -1
0 1;
#X floatatom 3638 482 5 0 0 0 - - -;
#X obj 3639 396 int;
#X floatatom 3639 419 5 0 127 0 - - -;
#X obj 3639 373 * 128;
#X obj 3641 352 hsl 20 15 0 1 0 0 empty empty empty -2 -8 0 10 -262144
-1 -1 0 1;
#X obj 2501 415 tgl 15 0 empty empty empty 17 7 0 10 -262144 -1 -1
0 1;
#X obj 2969 169 print;
#X obj 1745 173 bng 15 250 50 0 empty empty empty 17 7 0 10 -262144
-1 -1;
#X obj 1579 1244 env~;
#X floatatom 1579 1267 5 0 0 0 - - -;
#X obj 1674 1248 env~;
#X floatatom 1674 1271 5 0 0 0 - - -;
#X obj 2186 1190 env~;
#X floatatom 2186 1213 5 0 0 0 - - -;
#X obj 2281 1194 env~;
#X floatatom 2281 1217 5 0 0 0 - - -;
#X obj 2894 1217 env~;
#X floatatom 2894 1240 5 0 0 0 - - -;
#X obj 2989 1221 env~;
#X floatatom 2989 1244 5 0 0 0 - - -;
#X obj 640 614 * 20500;
#X obj 1860 609 bng 15 250 50 0 empty empty empty 17 7 0 10 -262144
-1 -1;
#X connect 4 0 11 0;
#X connect 4 0 136 0;
#X connect 5 0 29 0;
#X connect 6 0 39 0;
#X connect 7 0 10 0;
#X connect 8 0 9 0;
#X connect 10 0 23 0;
#X connect 11 0 12 0;
#X connect 12 0 16 0;
#X connect 13 0 12 1;
#X connect 15 0 14 0;
#X connect 16 0 17 0;
#X connect 18 0 19 0;
#X connect 20 0 22 0;
#X connect 21 0 20 1;
#X connect 23 0 427 0;
#X connect 24 0 26 0;
#X connect 25 0 24 1;
#X connect 28 0 33 0;
#X connect 29 0 30 0;
#X connect 30 0 31 0;
#X connect 31 0 32 0;
#X connect 33 0 35 0;
#X connect 34 0 33 1;
#X connect 36 0 38 0;
#X connect 37 0 36 1;
#X connect 39 0 41 0;
#X connect 41 0 40 0;
#X connect 42 0 15 0;
#X connect 43 0 20 0;
#X connect 44 0 30 1;
#X connect 45 0 36 0;
#X connect 46 0 24 0;
#X connect 47 0 173 0;
#X connect 47 0 112 0;
#X connect 47 0 174 0;
#X connect 48 0 110 0;
#X connect 48 0 118 0;
#X connect 48 0 129 0;
#X connect 50 0 52 0;
#X connect 51 0 50 1;
#X connect 51 0 171 1;
#X connect 52 0 49 0;
#X connect 53 0 56 0;
#X connect 54 0 58 0;
#X connect 55 0 65 0;
#X connect 56 0 57 1;
#X connect 57 0 55 0;
#X connect 58 0 59 0;
#X connect 58 1 55 1;
#X connect 59 0 57 0;
#X connect 60 0 111 0;
#X connect 60 0 119 0;
#X connect 60 0 130 0;
#X connect 61 0 128 0;
#X connect 61 0 141 0;
#X connect 61 0 144 0;
#X connect 61 0 428 0;
#X connect 61 0 109 0;
#X connect 61 0 117 0;
#X connect 62 0 74 0;
#X connect 63 0 75 0;
#X connect 65 0 66 0;
#X connect 66 0 47 0;
#X connect 67 0 69 0;
#X connect 67 1 68 0;
#X connect 68 0 70 1;
#X connect 69 0 70 0;
#X connect 70 0 202 0;
#X connect 71 0 72 0;
#X connect 72 0 66 0;
#X connect 72 1 66 1;
#X connect 73 0 67 0;
#X connect 74 0 73 0;
#X connect 75 0 62 0;
#X connect 76 0 79 1;
#X connect 77 0 78 0;
#X connect 78 0 147 0;
#X connect 79 0 80 0;
#X connect 80 0 105 0;
#X connect 81 0 76 0;
#X connect 82 0 86 0;
#X connect 83 0 84 0;
#X connect 84 0 82 0;
#X connect 84 0 90 1;
#X connect 85 0 93 0;
#X connect 86 0 175 0;
#X connect 87 0 84 0;
#X connect 88 0 89 0;
#X connect 90 0 87 1;
#X connect 90 0 92 0;
#X connect 91 0 90 0;
#X connect 93 0 83 0;
#X connect 93 1 82 1;
#X connect 93 2 94 0;
#X connect 94 0 91 0;
#X connect 95 0 148 0;
#X connect 96 0 102 0;
#X connect 97 0 99 0;
#X connect 97 1 98 0;
#X connect 98 0 100 1;
#X connect 99 0 100 0;
#X connect 100 0 103 0;
#X connect 101 0 97 0;
#X connect 102 0 95 0;
#X connect 103 0 104 0;
#X connect 104 0 107 0;
#X connect 105 0 106 0;
#X connect 106 0 87 0;
#X connect 107 0 105 0;
#X connect 107 1 105 1;
#X connect 109 0 112 1;
#X connect 110 0 112 2;
#X connect 111 0 112 3;
#X connect 112 0 178 0;
#X connect 112 1 178 1;
#X connect 113 0 114 0;
#X connect 115 0 113 0;
#X connect 115 0 50 0;
#X connect 116 0 115 0;
#X connect 117 0 173 1;
#X connect 118 0 173 2;
#X connect 119 0 120 0;
#X connect 120 0 122 0;
#X connect 121 0 123 0;
#X connect 121 0 134 0;
#X connect 122 0 139 0;
#X connect 122 0 173 3;
#X connect 123 0 120 0;
#X connect 123 1 120 1;
#X connect 126 0 124 0;
#X connect 127 0 125 0;
#X connect 128 0 174 1;
#X connect 129 0 174 2;
#X connect 130 0 131 0;
#X connect 131 0 132 0;
#X connect 132 0 142 0;
#X connect 132 0 174 3;
#X connect 133 0 131 0;
#X connect 133 1 131 1;
#X connect 134 0 133 0;
#X connect 137 0 4 0;
#X connect 138 0 108 0;
#X connect 139 0 140 0;
#X connect 140 0 177 0;
#X connect 141 0 139 0;
#X connect 141 1 139 1;
#X connect 142 0 143 0;
#X connect 143 0 176 0;
#X connect 144 0 142 0;
#X connect 144 1 142 1;
#X connect 147 1 79 0;
#X connect 148 0 101 0;
#X connect 154 0 152 0;
#X connect 155 0 153 0;
#X connect 157 0 151 0;
#X connect 158 0 42 0;
#X connect 159 0 42 0;
#X connect 160 0 42 0;
#X connect 161 0 42 0;
#X connect 162 0 42 0;
#X connect 163 0 42 0;
#X connect 164 0 42 0;
#X connect 165 0 42 0;
#X connect 166 0 42 0;
#X connect 167 0 170 0;
#X connect 168 0 169 0;
#X connect 170 0 168 0;
#X connect 170 0 171 0;
#X connect 171 0 172 0;
#X connect 172 0 49 1;
#X connect 173 0 180 0;
#X connect 173 1 180 1;
#X connect 174 0 182 0;
#X connect 174 1 182 1;
#X connect 175 0 88 0;
#X connect 176 0 146 0;
#X connect 177 0 145 0;
#X connect 178 0 116 0;
#X connect 178 0 415 0;
#X connect 178 1 417 0;
#X connect 178 1 167 0;
#X connect 179 0 178 2;
#X connect 180 0 419 0;
#X connect 180 0 116 0;
#X connect 180 1 421 0;
#X connect 180 1 167 0;
#X connect 181 0 180 2;
#X connect 182 0 423 0;
#X connect 182 0 116 0;
#X connect 182 1 425 0;
#X connect 182 1 167 0;
#X connect 183 0 182 2;
#X connect 184 0 185 0;
#X connect 184 0 186 0;
#X connect 184 0 188 0;
#X connect 185 0 190 0;
#X connect 186 0 187 0;
#X connect 187 0 181 0;
#X connect 188 0 189 0;
#X connect 189 0 183 0;
#X connect 190 0 179 0;
#X connect 191 0 42 0;
#X connect 192 0 42 0;
#X connect 193 0 19 0;
#X connect 194 0 112 4;
#X connect 195 0 196 0;
#X connect 196 0 197 0;
#X connect 197 0 173 4;
#X connect 198 0 199 0;
#X connect 199 0 174 4;
#X connect 200 0 198 0;
#X connect 201 0 27 0;
#X connect 202 0 64 0;
#X connect 203 0 204 0;
#X connect 204 0 207 0;
#X connect 205 0 206 0;
#X connect 206 0 203 0;
#X connect 207 0 269 0;
#X connect 208 0 209 0;
#X connect 208 1 218 0;
#X connect 209 0 210 0;
#X connect 210 0 217 0;
#X connect 211 0 213 0;
#X connect 212 0 211 1;
#X connect 214 0 215 0;
#X connect 215 0 211 0;
#X connect 216 0 214 0;
#X connect 217 0 216 0;
#X connect 218 0 219 0;
#X connect 219 0 226 0;
#X connect 220 0 222 0;
#X connect 221 0 220 1;
#X connect 223 0 224 0;
#X connect 224 0 220 0;
#X connect 225 0 223 0;
#X connect 226 0 225 0;
#X connect 227 0 228 0;
#X connect 227 1 237 0;
#X connect 228 0 229 0;
#X connect 229 0 236 0;
#X connect 230 0 232 0;
#X connect 231 0 230 1;
#X connect 233 0 234 0;
#X connect 234 0 230 0;
#X connect 235 0 233 0;
#X connect 236 0 235 0;
#X connect 237 0 238 0;
#X connect 238 0 245 0;
#X connect 239 0 241 0;
#X connect 240 0 239 1;
#X connect 242 0 243 0;
#X connect 243 0 239 0;
#X connect 244 0 242 0;
#X connect 245 0 244 0;
#X connect 246 0 247 0;
#X connect 246 1 256 0;
#X connect 247 0 248 0;
#X connect 248 0 255 0;
#X connect 249 0 251 0;
#X connect 250 0 249 1;
#X connect 252 0 253 0;
#X connect 253 0 249 0;
#X connect 254 0 252 0;
#X connect 255 0 254 0;
#X connect 256 0 257 0;
#X connect 257 0 264 0;
#X connect 258 0 260 0;
#X connect 259 0 258 1;
#X connect 261 0 262 0;
#X connect 262 0 258 0;
#X connect 263 0 261 0;
#X connect 264 0 263 0;
#X connect 267 0 42 0;
#X connect 269 0 270 0;
#X connect 269 1 356 0;
#X connect 269 1 413 0;
#X connect 269 2 271 0;
#X connect 270 0 208 0;
#X connect 270 1 227 0;
#X connect 270 2 246 0;
#X connect 270 3 272 0;
#X connect 270 4 281 0;
#X connect 270 5 290 0;
#X connect 271 0 385 0;
#X connect 271 1 394 0;
#X connect 271 2 403 0;
#X connect 272 0 273 0;
#X connect 273 0 280 0;
#X connect 274 0 276 0;
#X connect 275 0 274 1;
#X connect 277 0 278 0;
#X connect 278 0 274 0;
#X connect 279 0 277 0;
#X connect 280 0 279 0;
#X connect 281 0 282 0;
#X connect 282 0 289 0;
#X connect 283 0 285 0;
#X connect 284 0 283 1;
#X connect 286 0 287 0;
#X connect 287 0 283 0;
#X connect 288 0 286 0;
#X connect 289 0 288 0;
#X connect 290 0 291 0;
#X connect 291 0 298 0;
#X connect 292 0 294 0;
#X connect 293 0 292 1;
#X connect 295 0 296 0;
#X connect 296 0 292 0;
#X connect 297 0 295 0;
#X connect 298 0 297 0;
#X connect 299 0 300 0;
#X connect 299 1 309 0;
#X connect 300 0 301 0;
#X connect 301 0 308 0;
#X connect 302 0 304 0;
#X connect 303 0 302 1;
#X connect 305 0 306 0;
#X connect 306 0 302 0;
#X connect 307 0 305 0;
#X connect 308 0 307 0;
#X connect 309 0 310 0;
#X connect 310 0 317 0;
#X connect 311 0 313 0;
#X connect 312 0 311 1;
#X connect 314 0 315 0;
#X connect 315 0 311 0;
#X connect 316 0 314 0;
#X connect 317 0 316 0;
#X connect 318 0 319 0;
#X connect 318 1 328 0;
#X connect 319 0 320 0;
#X connect 320 0 327 0;
#X connect 321 0 323 0;
#X connect 322 0 321 1;
#X connect 324 0 325 0;
#X connect 325 0 321 0;
#X connect 326 0 324 0;
#X connect 327 0 326 0;
#X connect 328 0 329 0;
#X connect 329 0 336 0;
#X connect 330 0 332 0;
#X connect 331 0 330 1;
#X connect 333 0 334 0;
#X connect 334 0 330 0;
#X connect 335 0 333 0;
#X connect 336 0 335 0;
#X connect 337 0 338 0;
#X connect 337 1 347 0;
#X connect 338 0 339 0;
#X connect 339 0 346 0;
#X connect 340 0 342 0;
#X connect 341 0 340 1;
#X connect 343 0 344 0;
#X connect 344 0 340 0;
#X connect 345 0 343 0;
#X connect 346 0 345 0;
#X connect 347 0 348 0;
#X connect 348 0 355 0;
#X connect 349 0 351 0;
#X connect 350 0 349 1;
#X connect 352 0 353 0;
#X connect 353 0 349 0;
#X connect 354 0 352 0;
#X connect 355 0 354 0;
#X connect 356 0 299 0;
#X connect 356 1 318 0;
#X connect 356 2 337 0;
#X connect 356 3 357 0;
#X connect 356 4 366 0;
#X connect 356 5 375 0;
#X connect 357 0 358 0;
#X connect 358 0 365 0;
#X connect 359 0 361 0;
#X connect 360 0 359 1;
#X connect 362 0 363 0;
#X connect 363 0 359 0;
#X connect 364 0 362 0;
#X connect 365 0 364 0;
#X connect 366 0 367 0;
#X connect 367 0 374 0;
#X connect 368 0 370 0;
#X connect 369 0 368 1;
#X connect 371 0 372 0;
#X connect 372 0 368 0;
#X connect 373 0 371 0;
#X connect 374 0 373 0;
#X connect 375 0 376 0;
#X connect 376 0 383 0;
#X connect 377 0 379 0;
#X connect 378 0 377 1;
#X connect 380 0 381 0;
#X connect 381 0 377 0;
#X connect 382 0 380 0;
#X connect 383 0 382 0;
#X connect 385 0 386 0;
#X connect 386 0 393 0;
#X connect 387 0 389 0;
#X connect 388 0 387 1;
#X connect 390 0 391 0;
#X connect 391 0 387 0;
#X connect 392 0 390 0;
#X connect 393 0 392 0;
#X connect 394 0 395 0;
#X connect 395 0 402 0;
#X connect 396 0 398 0;
#X connect 397 0 396 1;
#X connect 399 0 400 0;
#X connect 400 0 396 0;
#X connect 401 0 399 0;
#X connect 402 0 401 0;
#X connect 403 0 404 0;
#X connect 404 0 411 0;
#X connect 405 0 407 0;
#X connect 406 0 405 1;
#X connect 408 0 409 0;
#X connect 409 0 405 0;
#X connect 410 0 408 0;
#X connect 411 0 410 0;
#X connect 412 0 212 0;
#X connect 412 0 221 0;
#X connect 412 0 231 0;
#X connect 412 0 240 0;
#X connect 412 0 250 0;
#X connect 412 0 259 0;
#X connect 412 0 275 0;
#X connect 412 0 284 0;
#X connect 412 0 293 0;
#X connect 412 0 303 0;
#X connect 412 0 312 0;
#X connect 412 0 322 0;
#X connect 412 0 331 0;
#X connect 412 0 341 0;
#X connect 412 0 350 0;
#X connect 412 0 360 0;
#X connect 412 0 369 0;
#X connect 412 0 378 0;
#X connect 412 0 388 0;
#X connect 412 0 397 0;
#X connect 412 0 406 0;
#X connect 414 0 15 0;
#X connect 415 0 416 0;
#X connect 417 0 418 0;
#X connect 419 0 420 0;
#X connect 421 0 422 0;
#X connect 423 0 424 0;
#X connect 425 0 426 0;
#X connect 427 0 8 0;
#X connect 428 0 194 0;
#X connect 428 0 195 0;
#X connect 428 0 200 0;
#X connect 428 0 109 0;
