#N canvas 1297 330 2543 1466 12;
#X floatatom 361 388 5 0 0 1 frequency - -;
#X obj 357 306 /;
#X floatatom 379 256 5 0 0 0 - - -;
#X obj 357 283 +;
#X obj 419 230 t b f;
#X msg 332 248 0;
#X floatatom 358 333 5 0 0 0 - - -;
#X obj 358 355 *;
#X obj 403 354 t b f;
#X floatatom 476 442 10 0 0 0 - - -;
#X floatatom 594 475 5 0 0 0 - - -;
#X floatatom 696 499 10 0 0 0 - - -;
#X obj 364 523 grain, f 48;
#X floatatom 985 417 10 0 0 0 - - -;
#X floatatom 1062 440 5 0 0 0 - - -;
#X floatatom 1104 463 10 0 0 0 - - -;
#X obj 1305 493 +;
#X floatatom 1306 525 10 0 0 0 - - -;
#X obj 1350 463 t b f;
#X floatatom 1727 427 10 0 0 0 - - -;
#X floatatom 1804 450 5 0 0 0 - - -;
#X floatatom 1848 475 10 0 0 0 - - -;
#X obj 2026 419 +;
#X floatatom 2027 451 10 0 0 0 - - -;
#X obj 2070 416 t b f;
#X obj 2071 389 / 2;
#X obj 1332 574 /;
#X floatatom 1333 596 5 0 0 0 - - -;
#X obj 1390 546 t b f;
#X obj 2065 503 /;
#X floatatom 2066 525 5 0 0 0 - - -;
#X obj 2123 475 t b f;
#X obj 910 507 grain, f 48;
#X obj 1613 505 grain, f 48;
#X obj 2066 547 * 127;
#X obj 1333 618 * 127;
#N canvas 0 25 2245 905 stereo 0;
#X obj 538 53 inlet~;
#X obj 534 560 outlet~;
#X obj 711 52 inlet~;
#X obj 707 559 outlet~;
#X obj 989 54 inlet;
#X obj 534 500 *~;
#X obj 707 509 *~;
#X text 1085 55 -1 to +1;
#X msg 901 295 1;
#X obj 920 322 +;
#X floatatom 917 395 5 0 0 0 - - -;
#X floatatom 989 214 5 0 0 0 - - -;
#X obj 992 94 hsl 128 15 -1 1 0 0 empty empty empty -2 -8 0 10 -262144
-1 -1 0 1;
#X floatatom 936 75 5 0 0 0 - - -;
#X obj 989 236 t b f;
#X obj 1029 311 +;
#X floatatom 1032 384 5 0 0 0 - - -;
#X obj 989 137 clip -1 1;
#X obj 920 345 / 2;
#X msg 1015 288 -1;
#X obj 1029 333 * -0.5;
#X connect 0 0 5 0;
#X connect 2 0 6 0;
#X connect 4 0 12 0;
#X connect 5 0 1 0;
#X connect 6 0 3 0;
#X connect 8 0 9 0;
#X connect 9 0 18 0;
#X connect 10 0 5 1;
#X connect 11 0 14 0;
#X connect 12 0 17 0;
#X connect 13 0 12 0;
#X connect 14 0 8 0;
#X connect 14 0 19 0;
#X connect 14 1 9 1;
#X connect 14 1 15 1;
#X connect 15 0 20 0;
#X connect 16 0 6 1;
#X connect 17 0 11 0;
#X connect 18 0 10 0;
#X connect 19 0 15 0;
#X connect 20 0 16 0;
#X restore 377 791 pd stereo;
#X obj 459 793 hsl 128 15 -1 1 0 0 empty empty empty -2 -8 0 10 -262144
-1 -1 0 1;
#N canvas 0 25 2245 905 stereo 0;
#X obj 538 53 inlet~;
#X obj 534 560 outlet~;
#X obj 711 52 inlet~;
#X obj 707 559 outlet~;
#X obj 989 54 inlet;
#X obj 534 500 *~;
#X obj 707 509 *~;
#X text 1085 55 -1 to +1;
#X msg 901 295 1;
#X obj 920 322 +;
#X floatatom 917 395 5 0 0 0 - - -;
#X floatatom 989 214 5 0 0 0 - - -;
#X obj 992 94 hsl 128 15 -1 1 0 0 empty empty empty -2 -8 0 10 -262144
-1 -1 0 1;
#X floatatom 936 75 5 0 0 0 - - -;
#X obj 989 236 t b f;
#X obj 1029 311 +;
#X floatatom 1032 384 5 0 0 0 - - -;
#X obj 989 137 clip -1 1;
#X obj 920 345 / 2;
#X msg 1015 288 -1;
#X obj 1029 333 * -0.5;
#X connect 0 0 5 0;
#X connect 2 0 6 0;
#X connect 4 0 12 0;
#X connect 5 0 1 0;
#X connect 6 0 3 0;
#X connect 8 0 9 0;
#X connect 9 0 18 0;
#X connect 10 0 5 1;
#X connect 11 0 14 0;
#X connect 12 0 17 0;
#X connect 13 0 12 0;
#X connect 14 0 8 0;
#X connect 14 0 19 0;
#X connect 14 1 9 1;
#X connect 14 1 15 1;
#X connect 15 0 20 0;
#X connect 16 0 6 1;
#X connect 17 0 11 0;
#X connect 18 0 10 0;
#X connect 19 0 15 0;
#X connect 20 0 16 0;
#X restore 934 755 pd stereo;
#X obj 1016 758 hsl 128 15 -1 1 0 0 empty empty empty -2 -8 0 10 -262144
-1 -1 0 1;
#N canvas 0 25 2245 905 stereo 0;
#X obj 538 53 inlet~;
#X obj 534 560 outlet~;
#X obj 711 52 inlet~;
#X obj 707 559 outlet~;
#X obj 989 54 inlet;
#X obj 534 500 *~;
#X obj 707 509 *~;
#X text 1085 55 -1 to +1;
#X msg 901 295 1;
#X obj 920 322 +;
#X floatatom 917 395 5 0 0 0 - - -;
#X floatatom 989 214 5 0 0 0 - - -;
#X obj 992 94 hsl 128 15 -1 1 0 0 empty empty empty -2 -8 0 10 -262144
-1 -1 0 1;
#X floatatom 936 75 5 0 0 0 - - -;
#X obj 989 236 t b f;
#X obj 1029 311 +;
#X floatatom 1032 384 5 0 0 0 - - -;
#X obj 989 137 clip -1 1;
#X obj 920 345 / 2;
#X msg 1015 288 -1;
#X obj 1029 333 * -0.5;
#X connect 0 0 5 0;
#X connect 2 0 6 0;
#X connect 4 0 12 0;
#X connect 5 0 1 0;
#X connect 6 0 3 0;
#X connect 8 0 9 0;
#X connect 9 0 18 0;
#X connect 10 0 5 1;
#X connect 11 0 14 0;
#X connect 12 0 17 0;
#X connect 13 0 12 0;
#X connect 14 0 8 0;
#X connect 14 0 19 0;
#X connect 14 1 9 1;
#X connect 14 1 15 1;
#X connect 15 0 20 0;
#X connect 16 0 6 1;
#X connect 17 0 11 0;
#X connect 18 0 10 0;
#X connect 19 0 15 0;
#X connect 20 0 16 0;
#X restore 1641 765 pd stereo;
#X obj 1723 767 hsl 128 15 -1 1 0 0 empty empty empty -2 -8 0 10 -262144
-1 -1 0 1;
#X floatatom 526 717 5 0 0 0 - - -;
#X floatatom 1051 692 5 0 0 0 - - -;
#X obj 1051 714 * 1;
#X floatatom 1769 698 5 0 0 0 - - -;
#X obj 1769 720 * -1;
#X msg 527 738 0;
#X msg 706 244 0;
#X msg 1235 228 1;
#X obj 1235 251 / 9;
#X floatatom 1235 274 5 0 0 0 - - -;
#X obj 1951 238 / 9;
#X floatatom 1951 261 5 0 0 0 - - -;
#X msg 1951 215 2;
#X obj 318 839 env~;
#X floatatom 318 862 5 0 0 0 - - -;
#X obj 413 843 env~;
#X floatatom 413 866 5 0 0 0 - - -;
#X obj 925 785 env~;
#X floatatom 925 808 5 0 0 0 - - -;
#X obj 1020 789 env~;
#X floatatom 1020 812 5 0 0 0 - - -;
#X obj 1633 812 env~;
#X floatatom 1633 835 5 0 0 0 - - -;
#X obj 1728 816 env~;
#X floatatom 1728 839 5 0 0 0 - - -;
#X obj 599 204 bng 15 250 50 0 empty empty empty 17 7 0 10 -262144
-1 -1;
#X obj 356 150 inlet;
#X obj 412 151 inlet;
#X obj 581 152 inlet;
#X obj 669 152 inlet;
#X obj 840 150 inlet;
#X obj 1028 150 inlet;
#X obj 1198 147 inlet;
#X obj 355 1130 outlet~;
#X obj 540 1144 outlet~;
#X obj 980 1166 outlet;
#X obj 1161 1174 outlet;
#X obj 1657 143 inlet;
#X text 356 128 sr;
#X text 410 129 grain_length_samples;
#X text 581 129 len_array;
#X text 665 131 grain_length_samples;
#X text 840 129 start_pos_samples;
#X text 1025 127 grain_spread_samples;
#X text 1201 122 grain_spatial_spread;
#X text 1659 121 multiplier;
#X floatatom 1030 181 5 0 0 0 - - -;
#X connect 0 0 12 0;
#X connect 0 0 32 0;
#X connect 0 0 33 0;
#X connect 1 0 6 0;
#X connect 2 0 3 1;
#X connect 3 0 1 0;
#X connect 4 0 5 0;
#X connect 4 1 1 1;
#X connect 5 0 3 0;
#X connect 6 0 7 0;
#X connect 7 0 0 0;
#X connect 8 0 7 0;
#X connect 8 1 7 1;
#X connect 9 0 12 1;
#X connect 10 0 12 2;
#X connect 11 0 12 3;
#X connect 12 0 36 0;
#X connect 12 0 36 1;
#X connect 13 0 32 1;
#X connect 14 0 32 2;
#X connect 15 0 16 0;
#X connect 16 0 17 0;
#X connect 17 0 26 0;
#X connect 17 0 32 3;
#X connect 18 0 16 0;
#X connect 18 1 16 1;
#X connect 19 0 33 1;
#X connect 20 0 33 2;
#X connect 21 0 22 0;
#X connect 22 0 23 0;
#X connect 23 0 29 0;
#X connect 23 0 33 3;
#X connect 24 0 22 0;
#X connect 24 1 22 1;
#X connect 25 0 24 0;
#X connect 26 0 27 0;
#X connect 27 0 35 0;
#X connect 28 0 26 0;
#X connect 28 1 26 1;
#X connect 29 0 30 0;
#X connect 30 0 34 0;
#X connect 31 0 29 0;
#X connect 31 1 29 1;
#X connect 32 0 38 0;
#X connect 32 0 38 1;
#X connect 33 0 40 0;
#X connect 33 0 40 1;
#X connect 34 0 78 0;
#X connect 35 0 77 0;
#X connect 36 0 55 0;
#X connect 36 0 75 0;
#X connect 36 1 57 0;
#X connect 36 1 76 0;
#X connect 37 0 36 2;
#X connect 38 0 59 0;
#X connect 38 0 75 0;
#X connect 38 1 61 0;
#X connect 38 1 76 0;
#X connect 39 0 38 2;
#X connect 40 0 63 0;
#X connect 40 0 75 0;
#X connect 40 1 65 0;
#X connect 40 1 76 0;
#X connect 41 0 40 2;
#X connect 42 0 47 0;
#X connect 43 0 44 0;
#X connect 44 0 39 0;
#X connect 45 0 46 0;
#X connect 46 0 41 0;
#X connect 47 0 37 0;
#X connect 48 0 12 4;
#X connect 49 0 50 0;
#X connect 50 0 51 0;
#X connect 51 0 32 4;
#X connect 52 0 53 0;
#X connect 53 0 33 4;
#X connect 54 0 52 0;
#X connect 55 0 56 0;
#X connect 57 0 58 0;
#X connect 59 0 60 0;
#X connect 61 0 62 0;
#X connect 63 0 64 0;
#X connect 65 0 66 0;
#X connect 67 0 48 0;
#X connect 67 0 49 0;
#X connect 67 0 54 0;
#X connect 67 0 9 0;
#X connect 68 0 2 0;
#X connect 69 0 4 0;
#X connect 70 0 19 0;
#X connect 70 0 67 0;
#X connect 70 0 9 0;
#X connect 70 0 13 0;
#X connect 70 0 28 0;
#X connect 70 0 31 0;
#X connect 71 0 10 0;
#X connect 71 0 14 0;
#X connect 71 0 20 0;
#X connect 72 0 11 0;
#X connect 72 0 15 0;
#X connect 72 0 21 0;
#X connect 73 0 18 0;
#X connect 73 0 25 0;
#X connect 73 0 88 0;
#X connect 74 0 42 0;
#X connect 74 0 43 0;
#X connect 74 0 45 0;
#X connect 79 0 8 0;
